HIERARCHY
ROOT hip
{
  OFFSET 0 0 0
  CHANNELS 6 Xposition Yposition Zposition Zrotation Yrotation Xrotation
  JOINT abdomen
  {
    OFFSET 0 20.6881 -0.73152
    CHANNELS 3 Zrotation Xrotation Yrotation
    JOINT chest
    {
      OFFSET 0 11.7043 -0.48768
      CHANNELS 3 Zrotation Xrotation Yrotation
      JOINT neck
      {
        OFFSET 0 22.1894 -2.19456
        CHANNELS 3 Zrotation Xrotation Yrotation
        JOINT head
        {
          OFFSET -0.24384 7.07133 1.2192
          CHANNELS 3 Zrotation Xrotation Yrotation
          JOINT leftEye
          {
            OFFSET 4.14528 8.04674 8.04672
            CHANNELS 3 Zrotation Xrotation Yrotation
            End Site
            {
              OFFSET 1 0 0
            }
          }
          JOINT rightEye
          {
            OFFSET -3.6576 8.04674 8.04672
            CHANNELS 3 Zrotation Xrotation Yrotation
            End Site
            {
              OFFSET 1 0 0
            }
          }
        }
      }
      JOINT rCollar
      {
        OFFSET -2.68224 19.2634 -4.8768
        CHANNELS 3 Zrotation Xrotation Yrotation
        JOINT rShldr
        {
          OFFSET -8.77824 -1.95073 1.46304
          CHANNELS 3 Zrotation Xrotation Yrotation
          JOINT rForeArm
          {
            OFFSET -28.1742 -1.7115 0.48768
            CHANNELS 3 Zrotation Xrotation Yrotation
            JOINT rHand
            {
              OFFSET -22.5879 0.773209 7.07136
              CHANNELS 3 Zrotation Xrotation Yrotation
              JOINT rThumb1
              {
                OFFSET -1.2192 -0.487915 3.41376
                CHANNELS 3 Zrotation Xrotation Yrotation
                JOINT rThumb2
                {
                  OFFSET -3.37035 -0.52449 3.41376
                  CHANNELS 3 Zrotation Xrotation Yrotation
                  End Site
                  {
                    OFFSET -1.78271 -1.18214 1.43049
                  }
                }
              }
              JOINT rIndex1
              {
                OFFSET -7.75947 0.938293 5.60832
                CHANNELS 3 Zrotation Xrotation Yrotation
                JOINT rIndex2
                {
                  OFFSET -2.54057 -0.884171 1.56538
                  CHANNELS 3 Zrotation Xrotation Yrotation
                  End Site
                  {
                    OFFSET -1.62519 -0.234802 1.16502
                  }
                }
              }
              JOINT rMid1
              {
                OFFSET -8.24714 1.18213 3.41376
                CHANNELS 3 Zrotation Xrotation Yrotation
                JOINT rMid2
                {
                  OFFSET -3.10165 -0.590103 1.0647
                  CHANNELS 3 Zrotation Xrotation Yrotation
                  End Site
                  {
                    OFFSET -2.48547 -0.328903 0.83742
                  }
                }
              }
              JOINT rRing1
              {
                OFFSET -8.82822 0.546677 1.51678
                CHANNELS 3 Zrotation Xrotation Yrotation
                JOINT rRing2
                {
                  OFFSET -2.60934 -0.819778 -0.0198488
                  CHANNELS 3 Zrotation Xrotation Yrotation
                  End Site
                  {
                    OFFSET -2.33842 -0.294052 0.168128
                  }
                }
              }
              JOINT rPinky1
              {
                OFFSET -8.27202 -0.0477905 -0.4584
                CHANNELS 3 Zrotation Xrotation Yrotation
                JOINT rPinky2
                {
                  OFFSET -1.82734 -0.647385 -0.700984
                  CHANNELS 3 Zrotation Xrotation Yrotation
                  End Site
                  {
                    OFFSET -1.69225 -0.51767 -0.607171
                  }
                }
              }
            }
          }
        }
      }
      JOINT lCollar
      {
        OFFSET 2.68224 19.2634 -4.8768
        CHANNELS 3 Zrotation Xrotation Yrotation
        JOINT lShldr
        {
          OFFSET 8.77824 -1.95073 1.46304
          CHANNELS 3 Zrotation Xrotation Yrotation
          JOINT lForeArm
          {
            OFFSET 28.1742 -1.7115 0.48768
            CHANNELS 3 Zrotation Xrotation Yrotation
            JOINT lHand
            {
              OFFSET 22.5879 0.773209 7.07136
              CHANNELS 3 Zrotation Xrotation Yrotation
              JOINT lThumb1
              {
                OFFSET 1.2192 -0.487915 3.41376
                CHANNELS 3 Zrotation Xrotation Yrotation
                JOINT lThumb2
                {
                  OFFSET 3.37035 -0.52449 3.41376
                  CHANNELS 3 Zrotation Xrotation Yrotation
                  End Site
                  {
                    OFFSET 1.78271 -1.18214 1.43049
                  }
                }
              }
              JOINT lIndex1
              {
                OFFSET 7.75947 0.938293 5.60832
                CHANNELS 3 Zrotation Xrotation Yrotation
                JOINT lIndex2
                {
                  OFFSET 2.54057 -0.884171 1.56538
                  CHANNELS 3 Zrotation Xrotation Yrotation
                  End Site
                  {
                    OFFSET 1.62519 -0.234802 1.16502
                  }
                }
              }
              JOINT lMid1
              {
                OFFSET 8.24714 1.18213 3.41376
                CHANNELS 3 Zrotation Xrotation Yrotation
                JOINT lMid2
                {
                  OFFSET 3.10165 -0.590103 1.0647
                  CHANNELS 3 Zrotation Xrotation Yrotation
                  End Site
                  {
                    OFFSET 2.48547 -0.328903 0.83742
                  }
                }
              }
              JOINT lRing1
              {
                OFFSET 8.82822 0.546677 1.51678
                CHANNELS 3 Zrotation Xrotation Yrotation
                JOINT lRing2
                {
                  OFFSET 2.60934 -0.819778 -0.0198488
                  CHANNELS 3 Zrotation Xrotation Yrotation
                  End Site
                  {
                    OFFSET 2.33842 -0.294052 0.168128
                  }
                }
              }
              JOINT lPinky1
              {
                OFFSET 8.27202 -0.0477905 -0.4584
                CHANNELS 3 Zrotation Xrotation Yrotation
                JOINT lPinky2
                {
                  OFFSET 1.82734 -0.647385 -0.700984
                  CHANNELS 3 Zrotation Xrotation Yrotation
                  End Site
                  {
                    OFFSET 1.69225 -0.51767 -0.607171
                  }
                }
              }
            }
          }
        }
      }
    }
  }
  JOINT rButtock
  {
    OFFSET -8.77824 4.35084 1.2192
    CHANNELS 3 Zrotation Xrotation Yrotation
    JOINT rThigh
    {
      OFFSET 0 -1.70687 -2.19456
      CHANNELS 3 Zrotation Xrotation Yrotation
      JOINT rShin
      {
        OFFSET 0 -36.8199 0.73152
        CHANNELS 3 Zrotation Xrotation Yrotation
        JOINT rFoot
        {
          OFFSET 0.73152 -45.1104 -5.12064
          CHANNELS 3 Zrotation Xrotation Yrotation
          End Site
          {
            OFFSET -1.1221 -3.69964 12.103
          }
        }
      }
    }
  }
  JOINT lButtock
  {
    OFFSET 8.77824 4.35084 1.2192
    CHANNELS 3 Zrotation Xrotation Yrotation
    JOINT lThigh
    {
      OFFSET 0 -1.70687 -2.19456
      CHANNELS 3 Zrotation Xrotation Yrotation
      JOINT lShin
      {
        OFFSET 0 -36.8199 0.73152
        CHANNELS 3 Zrotation Xrotation Yrotation
        JOINT lFoot
        {
          OFFSET -0.73152 -45.1104 -5.12064
          CHANNELS 3 Zrotation Xrotation Yrotation
          End Site
          {
            OFFSET 1.1221 -3.69964 12.103
          }
        }
      }
    }
  }
}
MOTION
Frames:	4
Frame Time:	0.03333
0.024709198623895645 57.56075382232666 0.2576037310063839 -2.6676523685455322 1.756020188331604 6.164114952087402 -3.1995439529418945 13.938264846801758 3.1650774478912354 3.431306838989258 -9.424318313598633 1.1712678670883179 -5.7858567237854 14.889491081237793 -5.152657985687256 9.649750709533691 -25.110292434692383 -7.050130844116211 -0.026194823905825615 0.10494846105575562 -0.05925014242529869 0.03753724694252014 -0.01642470993101597 0.0241645947098732 0.10873300582170486 0.006304687820374966 0.03460266813635826 50.87312698364258 38.41252517700195 11.839573860168457 -28.059606552124023 -32.103885650634766 70.35098266601562 -0.0023055069614201784 1.8922191858291626 0.16298148036003113 -0.03013179823756218 0.014584477990865707 0.04327721521258354 0.03308377414941788 -0.05531233176589012 0.12259919196367264 0.02231581322848797 -0.043575823307037354 -0.04998484626412392 7.8146467208862305 5.395522117614746 0.3805217444896698 0.033932287245988846 -0.015606317669153214 -0.021405480802059174 2.9484105110168457 1.0778493881225586 0.14256010949611664 0.05264544114470482 0.051274605095386505 -0.029450181871652603 10.269088745117188 0.7349463701248169 -0.06084785237908363 -0.046518221497535706 0.0017447255086153746 -0.052591171115636826 2.1428356170654297 -0.7600713968276978 -0.14350026845932007 0.04751138389110565 0.11350560188293457 -0.06993499398231506 -56.47686767578125 38.6610221862793 -23.984561920166016 28.653100967407227 -34.3320198059082 -74.35074615478516 0.3175271451473236 -18.80055046081543 2.630556106567383 0.09823346883058548 0.0568280890583992 0.02129608392715454 0.13305026292800903 0.005512740463018417 0.012740233913064003 0.05583314597606659 -0.06353205442428589 0.05071016028523445 -7.721191883087158 5.471087455749512 -0.3237297534942627 -0.04703953489661217 0.013235228136181831 0.008694631978869438 -2.9846267700195312 1.0235035419464111 -0.04325142875313759 0.03476915881037712 0.008756095543503761 -0.02890736050903797 -10.322629928588867 0.8430591225624084 0.04027340188622475 0.019428415223956108 0.02018660493195057 0.10246068239212036 -2.260951280593872 -0.6744894981384277 0.19503267109394073 0.05808454751968384 0.052676234394311905 0.07022056728601456 -29.31102752685547 -45.69580078125 -25.183351516723633 -2.0212671756744385 67.48482513427734 2.6018481254577637 -4.7058939933776855 -11.631707191467285 -12.318434715270996 -0.00840111542493105 -0.1280774623155594 0.0002515641099307686 34.14081573486328 -43.024200439453125 27.062734603881836 1.608863353729248 69.77572631835938 -2.666621685028076 4.988132476806641 -11.707029342651367 15.546696662902832
0.07369574159383774 63.6910080909729 0.36636050790548325 -2.0516531467437744 0.4745452404022217 6.680550575256348 -4.180270671844482 13.718111038208008 2.9812612533569336 3.4586009979248047 -9.461321830749512 1.2997157573699951 -5.862173080444336 14.911888122558594 -4.795155048370361 10.555930137634277 -25.527618408203125 -5.817081451416016 -0.012373180128633976 0.1080201119184494 0.009960699826478958 0.06430068612098694 0.07025079429149628 -0.0017515069339424372 0.030444107949733734 0.02645341120660305 0.00011057002848247066 49.72739791870117 36.974327087402344 13.326789855957031 -28.201892852783203 -31.955793380737305 69.70697021484375 -0.31240516901016235 2.8044798374176025 0.07269164174795151 -0.09135565906763077 0.06498575210571289 0.029900047928094864 0.05555630102753639 -0.046453941613435745 0.049354441463947296 0.004938066471368074 -0.05336534231901169 -0.0150767732411623 7.769789218902588 5.40083122253418 0.376899778842926 -0.03917190432548523 -0.03835665434598923 0.008055944927036762 2.9258103370666504 1.0053439140319824 0.12274414300918579 0.03930007293820381 0.05465088039636612 0.0157986618578434 10.268133163452148 0.72119140625 0.012425639666616917 -0.09104359894990921 -0.03025454469025135 -0.02127659134566784 2.118215560913086 -0.7353093028068542 -0.12487328797578812 0.08557266741991043 0.0698467493057251 -0.06618829071521759 -54.762168884277344 38.77381896972656 -25.560443878173828 28.757225036621094 -34.89834213256836 -75.71102142333984 0.059677645564079285 -19.317466735839844 2.37042236328125 0.05150064080953598 0.07012590765953064 0.042092032730579376 0.03346562758088112 0.016482260078191757 -0.03536917269229889 0.10220880061388016 -0.08459648489952087 0.012667184695601463 -7.73171329498291 5.523340225219727 -0.33611300587654114 -0.08019078522920609 0.07182983309030533 0.06370518356561661 -2.958209753036499 1.003169298171997 -0.06365200877189636 0.02726307325065136 -0.043022412806749344 -0.02809256687760353 -10.330988883972168 0.8339574337005615 0.016519781202077866 -0.057575523853302 0.015382776968181133 0.08012889325618744 -2.2386879920959473 -0.7006115913391113 0.2628198564052582 0.006723499856889248 0.005986986216157675 0.10298167169094086 -30.198883056640625 -45.76145553588867 -27.083614349365234 -2.3246424198150635 67.98624420166016 3.0460615158081055 -5.6070237159729 -11.91144847869873 -12.799173355102539 0.023008812218904495 -0.03174620121717453 -0.008632778190076351 34.0142822265625 -41.676368713378906 26.721073150634766 1.5889976024627686 69.87493896484375 -2.564112424850464 5.143725872039795 -11.768649101257324 15.161649703979492
0.020962674170732498 62.792837619781494 0.5196087993681431 7.698303699493408 58.34457778930664 18.58287811279297 -8.69916820526123 21.068557739257812 -1.1863161325454712 5.486926555633545 -12.064335823059082 0.246988907456398 -9.979060173034668 20.103925704956055 -15.340380668640137 20.82701873779297 -33.36624526977539 -25.805269241333008 0.0044891200959682465 0.05949222669005394 -0.008922831155359745 0.05897706001996994 0.010698780417442322 -0.031044211238622665 0.011255992576479912 0.0037321755662560463 -0.009865336120128632 29.422588348388672 18.452688217163086 31.815658569335938 -27.692441940307617 -42.54526138305664 87.75674438476562 -0.9120771884918213 -23.746566772460938 -3.790940761566162 0.029051879420876503 -0.09275683015584946 0.07773393392562866 0.09872632473707199 -0.06731527298688889 0.004369252361357212 0.02503168024122715 -0.004649977665394545 -0.06300952285528183 7.716282844543457 5.48567008972168 0.3859119117259979 -0.02240954339504242 -0.0767897292971611 0.080296590924263 2.8846895694732666 1.0257176160812378 0.12676341831684113 -0.035247158259153366 -0.029853954911231995 -0.018420660868287086 10.262896537780762 0.89728182554245 0.04759334400296211 -0.02940225787460804 -0.03310585394501686 0.006802702788263559 2.2170987129211426 -0.7297993898391724 -0.25163108110427856 0.014496657066047192 -0.05085592344403267 0.01092387456446886 -47.86570739746094 50.768585205078125 -27.158235549926758 27.444719314575195 -42.361759185791016 -88.77483367919922 0.18283326923847198 -10.937637329101562 1.2516268491744995 0.14226846396923065 0.024790439754724503 0.08760321885347366 -0.039935994893312454 0.0034210290759801865 -0.022115832194685936 0.058975186198949814 0.03429048880934715 -0.016318053007125854 -7.823342800140381 5.471561908721924 -0.4324161112308502 -0.05053552985191345 -0.0011033470509573817 -0.0033733004238456488 -2.9601564407348633 0.9789860248565674 -0.08003512769937515 -0.00023159511329140514 -0.01923024095594883 -0.00911781471222639 -10.267319679260254 0.6985233426094055 -0.09433428943157196 0.027557218447327614 0.011913211084902287 -0.003737055230885744 -2.232329845428467 -0.749595046043396 0.14398550987243652 -0.021904338151216507 -0.00685745757073164 0.07028699666261673 -53.193321228027344 -64.14436340332031 -47.1595458984375 -8.916145324707031 82.95891571044922 9.799002647399902 -5.033838272094727 -9.977238655090332 -14.9465970993042 0.01284522470086813 0.019780529662966728 0.05347653478384018 29.874086380004883 -32.923553466796875 13.081035614013672 0.6708487272262573 62.02635955810547 -2.504502534866333 3.3710110187530518 -4.380685329437256 21.654077529907227
-0.18719248473644257 60.25581359863281 0.8619651198387146 7.404074192047119 57.877227783203125 16.754241943359375 -8.531472206115723 22.160329818725586 -0.8830761313438416 5.702968597412109 -12.659424781799316 0.07953538745641708 -10.596713066101074 20.67585563659668 -16.62063217163086 21.485916137695312 -33.67182922363281 -27.287771224975586 -0.006236866116523743 0.09561657160520554 -0.053887512534856796 0.04666696861386299 -0.0702325701713562 -0.05017158016562462 -0.01562429592013359 0.03065355308353901 -0.024739326909184456 28.696584701538086 18.599205017089844 32.22568893432617 -27.10354232788086 -43.8360481262207 90.67381286621094 -0.7539599537849426 -25.99850845336914 -4.0104217529296875 0.0042690313421189785 -0.06635193526744843 0.08031292259693146 0.10586126893758774 -0.03330156207084656 -0.018562454730272293 -0.019624914973974228 -0.00740050757303834 -0.07046646624803543 7.733554840087891 5.499900817871094 0.39185553789138794 0.027368897572159767 -0.07201637327671051 0.04260024428367615 2.9109861850738525 1.043807864189148 0.1017315685749054 0.0066678402945399284 0.020540624856948853 -0.07332013547420502 10.304337501525879 0.8851733803749084 -0.003517265198752284 0.04316990077495575 0.03202689066529274 -0.019465085119009018 2.1598875522613525 -0.7147486805915833 -0.20208537578582764 -2.9399170671240427e-05 -0.07397698611021042 0.03156222030520439 -50.44335174560547 50.037757873535156 -23.82002067565918 27.61773681640625 -42.49766159057617 -88.80472564697266 -0.004502936266362667 -9.91592788696289 1.2166084051132202 0.13722917437553406 0.0559663400053978 0.06736120581626892 -0.0361955501139164 -0.03789924085140228 -0.04621737822890282 0.019626256078481674 0.044300395995378494 -0.0005127975018694997 -7.804072380065918 5.461474418640137 -0.4748353064060211 0.012522276490926743 -0.015835223719477654 -0.08868761360645294 -2.9376778602600098 0.972720205783844 -0.10352019220590591 0.0016464819200336933 -0.03593568503856659 -0.006932761054486036 -10.273677825927734 0.6851224303245544 -0.10263894498348236 0.015360227786004543 -0.028257451951503754 -0.08587218075990677 -2.2128477096557617 -0.72188800573349 0.18131811916828156 -0.010600278154015541 0.01045197807252407 0.022295257076621056 -47.1826286315918 -65.44113159179688 -41.80186462402344 -7.074030876159668 82.03590393066406 8.021010398864746 -5.095242023468018 -9.616463661193848 -16.493183135986328 0.023423917591571808 -0.008448845706880093 0.07666178792715073 30.049266815185547 -35.79117202758789 11.58629035949707 0.5685949325561523 63.33723068237305 -2.558981418609619 2.9583873748779297 -2.8259105682373047 21.02667236328125
